<svg height="1274" viewBox=".02 0 600.67 306" width="2500" xmlns="http://www.w3.org/2000/svg"><path d="m175.85 216.88c-24.57 0-44.56 19.99-44.56 44.56s19.99 44.56 44.56 44.56 44.56-19.99 44.56-44.56-19.99-44.56-44.56-44.56" fill="#fcb615"/><path d="m51.32 216.88c-24.57 0-44.56 19.99-44.56 44.56s19.99 44.56 44.56 44.56 44.56-19.99 44.56-44.56-19.99-44.56-44.56-44.56" fill="#ed353f"/><path d="m300.38 216.88c-24.57 0-44.56 19.99-44.56 44.56s19.99 44.56 44.56 44.56 44.56-19.99 44.56-44.56-19.99-44.56-44.56-44.56" fill="#02af56"/><path d="m549.44 216.88c-24.57 0-44.56 19.99-44.56 44.56s19.99 44.56 44.56 44.56 44.56-19.99 44.56-44.56-19.99-44.56-44.56-44.56" fill="#00a8df"/><path d="m424.91 216.88c-24.57 0-44.57 19.99-44.57 44.56s19.99 44.56 44.56 44.56 44.56-19.99 44.56-44.56c.01-24.57-19.97-44.56-44.55-44.56" fill="#a14699"/><path d="m88.47 90.61c0-20.84-15.72-36.56-36.56-36.56s-36.56 15.72-36.56 36.56c0 20.83 15.72 36.56 36.56 36.56 20.83 0 36.56-15.73 36.56-36.56m-88.45 0c0-28.89 23.19-50.71 51.89-50.71 28.89 0 51.89 21.62 51.89 50.51v44.42c0 4.52-3.15 7.66-7.86 7.66-4.91 0-7.86-3.14-7.86-7.66v-12.97h-.79c-6.09 10.42-18.28 19.46-36.36 19.46-27.91 0-50.91-21.62-50.91-50.71m212.67 0c0-20.84-15.72-36.56-36.56-36.56s-36.56 15.72-36.56 36.56c0 20.83 15.72 36.56 36.56 36.56s36.56-15.73 36.56-36.56m-68.4 83.53c-4.13-1.97-6.09-5.51-4.52-9.63 1.57-4.33 5.5-6.09 9.63-4.13 7.08 3.34 15.92 5.7 25.35 5.7 23.39 0 37.54-13.96 37.54-37.74v-6.49h-.79c-6.09 10.42-18.28 19.46-36.36 19.46-27.91 0-50.9-21.62-50.9-50.71 0-28.89 23.19-50.71 51.89-50.71 28.89 0 51.89 21.62 51.89 50.51v36.95c0 31.84-20.44 53.26-53.85 53.26-10.22.01-20.44-1.95-29.88-6.47m192.62-83.53c0-20.84-15.72-36.56-36.56-36.56s-36.56 15.72-36.56 36.56c0 20.83 15.72 36.56 36.56 36.56s36.56-15.73 36.56-36.56m-88.44 0c0-28.89 23-50.71 51.89-50.71s51.89 21.81 51.89 50.71c0 28.89-23 50.71-51.89 50.71-28.9 0-51.89-21.82-51.89-50.71m212.66 0c0-20.84-15.72-36.56-36.56-36.56s-36.56 15.72-36.56 36.56c0 20.83 15.72 36.56 36.56 36.56s36.56-15.73 36.56-36.56m-88.44 0c0-28.89 22.8-50.71 50.91-50.71 18.08 0 30.27 9.04 36.36 19.46h.79v-51.69c0-4.52 3.15-7.67 7.86-7.67 4.91 0 7.86 3.15 7.86 7.67v83.13c0 28.89-23 50.51-51.89 50.51-28.7.01-51.89-21.81-51.89-50.7m212.67 0c0-20.84-15.72-36.56-36.56-36.56s-36.56 15.72-36.56 36.56c0 20.83 15.72 36.56 36.56 36.56 20.83 0 36.56-15.73 36.56-36.56m-88.45 0c0-28.89 23.19-50.71 51.89-50.71 28.89 0 51.89 21.62 51.89 50.51v44.42c0 4.52-3.15 7.66-7.86 7.66-4.91 0-7.86-3.14-7.86-7.66v-12.97h-.79c-6.09 10.42-18.28 19.46-36.36 19.46-27.91 0-50.91-21.62-50.91-50.71" fill="#595a5a"/></svg>